<?xml version="1.0" standalone="no"?>
<!DOCTYPE svg PUBLIC "-//W3C//DTD SVG 20010904//EN"
 "http://www.w3.org/TR/2001/REC-SVG-20010904/DTD/svg10.dtd">
<svg version="1.0" xmlns="http://www.w3.org/2000/svg"
 width="512.000000pt" height="512.000000pt" viewBox="0 0 512.000000 512.000000"
 preserveAspectRatio="xMidYMid meet">
<metadata>
Created by potrace 1.14, written by Peter Selinger 2001-2017
</metadata>
<g transform="translate(0.000000,512.000000) scale(0.100000,-0.100000)"
fill="#000000" stroke="none">
<path d="M3967 4395 c-9 -6 -14 -15 -10 -18 3 -4 -2 -9 -11 -13 -9 -3 -13 -10
-10 -15 3 -5 -2 -9 -10 -9 -9 0 -16 -4 -16 -9 0 -9 -203 -113 -216 -111 -4 1
-10 -2 -13 -7 -11 -15 -62 -34 -73 -27 -7 4 -8 2 -4 -4 6 -11 -6 -16 -26 -13
-5 0 -8 -4 -8 -10 0 -5 -4 -7 -10 -4 -5 3 -10 1 -10 -5 0 -7 -7 -9 -16 -6 -8
3 -12 2 -9 -4 4 -6 -10 -11 -34 -11 -44 -2 -48 -2 -71 -12 -8 -4 -24 -8 -35
-10 -31 -4 -45 -16 -45 -38 0 -10 -7 -19 -15 -19 -9 0 -18 -6 -21 -14 -3 -8
-11 -13 -19 -10 -7 3 -20 -2 -29 -11 -9 -9 -16 -13 -16 -10 0 4 -11 0 -25 -9
-13 -9 -31 -16 -40 -16 -8 0 -15 -4 -15 -10 0 -5 -3 -9 -7 -8 -15 3 -63 -14
-63 -23 0 -5 -11 -9 -24 -9 -13 0 -29 -7 -36 -15 -7 -8 -16 -13 -20 -10 -4 2
-16 -2 -26 -10 -10 -8 -26 -15 -34 -15 -9 0 -21 -5 -28 -12 -6 -6 -22 -13 -34
-15 -12 -2 -25 -8 -28 -14 -4 -5 -20 -12 -36 -15 -16 -3 -32 -10 -35 -16 -10
-16 -39 -19 -39 -5 0 7 -5 6 -11 -3 -9 -13 -10 -13 -6 1 4 11 -16 39 -56 80
-55 57 -66 64 -97 62 -63 -5 -70 -6 -70 -16 0 -6 -3 -7 -7 -4 -3 4 -12 2 -20
-4 -7 -6 -13 -9 -13 -5 0 11 -36 -30 -69 -77 -18 -26 -27 -47 -20 -47 8 0 9
-3 0 -13 -6 -8 -8 -17 -4 -20 3 -4 0 -7 -8 -7 -11 0 -11 -2 1 -10 9 -6 11 -10
3 -10 -7 0 -10 -7 -6 -16 3 -9 7 -23 8 -32 5 -41 18 -82 26 -82 5 0 9 -7 9
-15 0 -8 6 -15 14 -15 18 0 29 -30 13 -35 -6 -2 -21 -5 -32 -7 -11 -2 -22 -6
-25 -10 -5 -6 -37 -15 -85 -23 -11 -2 -21 -4 -22 -5 -2 -2 -6 -3 -10 -5 -5 -1
-21 -5 -38 -10 -29 -8 -89 -55 -70 -55 6 0 5 -4 -2 -8 -10 -6 -25 -69 -26
-109 0 -7 -4 -13 -8 -13 -5 0 -6 -13 -4 -30 2 -16 -1 -30 -7 -30 -5 0 -8 -6
-5 -14 3 -8 3 -17 -1 -20 -3 -4 -7 -12 -8 -19 -2 -7 -6 -23 -9 -37 -4 -14 -7
-31 -7 -37 -1 -7 -5 -13 -10 -13 -4 0 -8 -7 -8 -15 0 -8 -7 -36 -17 -62 -9
-26 -17 -55 -18 -63 -1 -8 -5 -22 -8 -30 -14 -35 -26 -94 -21 -102 3 -4 0 -8
-6 -8 -6 0 -8 -5 -4 -11 3 -6 0 -15 -7 -20 -8 -5 -9 -9 -3 -9 7 0 9 -11 6 -25
-2 -14 -9 -25 -14 -25 -5 0 -6 -5 -3 -10 4 -6 1 -17 -5 -25 -10 -12 -10 -15 1
-15 9 0 10 -3 4 -8 -11 -7 -16 -47 -15 -111 1 -42 8 -54 26 -47 8 3 14 1 14
-3 0 -5 14 -7 32 -4 34 5 66 37 63 62 -4 31 -27 81 -35 76 -5 -3 -7 3 -5 14
10 51 48 87 76 71 23 -13 40 3 45 43 2 20 15 57 29 81 14 25 25 49 24 53 -1 4
-1 10 1 13 1 3 3 15 6 28 2 12 11 33 19 46 9 13 15 28 14 32 -4 16 13 64 23
64 5 0 6 5 2 12 -4 7 -3 8 5 4 6 -4 9 -11 6 -16 -3 -5 -1 -11 5 -15 6 -4 8
-11 4 -16 -3 -5 0 -17 8 -26 11 -14 11 -16 -2 -8 -13 8 -13 7 -1 -8 7 -9 10
-17 5 -17 -5 0 -3 -4 5 -9 8 -5 14 -23 13 -40 0 -17 3 -33 8 -36 5 -3 6 -15 3
-28 -5 -25 -12 -72 -17 -132 -2 -22 -4 -40 -6 -40 -3 0 -11 -77 -13 -127 -1
-27 -5 -48 -8 -48 -3 0 -7 -17 -8 -37 -4 -69 -10 -148 -14 -175 -3 -16 0 -28
7 -28 8 0 8 -2 0 -8 -6 -4 -12 -34 -14 -67 -1 -33 -4 -85 -5 -115 -2 -30 -4
-55 -5 -55 0 0 -3 -56 -6 -125 -3 -69 -6 -135 -7 -147 -1 -13 -4 -23 -7 -23
-4 0 -6 -23 -6 -50 1 -28 -3 -50 -9 -50 -5 0 1 -9 15 -19 13 -11 28 -17 33
-14 5 3 28 -2 53 -12 24 -9 48 -14 54 -10 11 7 11 9 13 -108 1 -48 -1 -87 -5
-87 -4 0 -5 -7 -2 -15 4 -8 0 -23 -7 -32 -12 -14 -12 -16 0 -8 10 5 12 4 7 -3
-4 -7 -14 -12 -21 -12 -9 0 -12 -6 -8 -17 4 -11 3 -14 -5 -9 -8 5 -10 2 -6 -8
4 -10 1 -16 -10 -16 -10 0 -13 -5 -9 -17 5 -12 2 -15 -10 -10 -9 3 -16 3 -16
-1 3 -20 -2 -33 -11 -27 -5 3 -10 1 -10 -6 0 -6 -10 -20 -22 -30 -11 -11 -17
-19 -12 -19 5 0 3 -4 -4 -9 -7 -4 -14 -16 -16 -25 -1 -10 -7 -21 -12 -24 -5
-4 -10 -12 -11 -18 -1 -6 -5 -24 -8 -40 -9 -42 -5 -158 5 -171 2 -2 4 -7 5
-13 1 -5 4 -13 5 -17 1 -5 2 -11 1 -15 0 -5 2 -8 7 -8 4 0 13 -13 20 -29 7
-16 23 -40 36 -54 13 -14 21 -28 18 -31 -3 -3 2 -6 10 -6 9 0 21 -7 28 -15 16
-19 66 -43 102 -49 15 -3 32 -8 38 -11 6 -4 41 -6 78 -5 89 2 92 2 92 11 0 4
9 6 20 4 11 -2 20 1 20 7 0 5 7 7 16 4 8 -3 12 -2 9 4 -3 5 5 12 19 16 13 3
27 12 30 21 3 8 10 11 16 8 5 -3 10 -1 10 5 0 6 5 8 10 5 6 -4 10 -3 9 2 -3
20 2 34 11 28 6 -3 10 1 10 9 0 9 5 16 10 16 6 0 10 7 10 15 0 8 4 15 10 15 5
0 9 3 8 7 -1 5 4 24 11 43 20 51 21 59 21 125 -1 84 -2 86 -16 114 -7 13 -11
28 -8 33 3 4 0 8 -5 8 -6 0 -11 7 -11 15 0 8 -4 15 -8 15 -5 0 -15 11 -22 25
-7 13 -21 27 -32 31 -10 3 -18 13 -18 21 0 9 -3 14 -6 10 -4 -3 -12 -1 -20 6
-7 7 -20 17 -28 24 -8 7 -13 20 -12 30 3 17 -15 38 -56 67 -9 7 -19 31 -22 58
-5 45 -4 47 25 57 17 6 36 8 42 4 5 -3 7 -1 3 5 -7 12 29 27 43 17 5 -3 13 -1
16 5 5 8 11 8 20 0 17 -14 29 3 32 45 2 38 18 161 26 205 1 8 6 20 10 27 4 6
3 14 -3 18 -6 4 -8 11 -5 16 7 11 11 28 19 94 13 99 26 166 33 178 4 6 1 7 -6
2 -10 -6 -11 -3 -1 14 6 12 12 42 13 66 1 24 4 42 7 40 6 -4 13 75 14 168 1
37 3 67 6 67 7 0 3 117 -5 129 -3 6 -1 11 5 11 7 0 8 6 1 19 -7 11 -7 30 -1
50 5 17 6 31 2 31 -4 0 -8 15 -10 33 -1 17 -5 50 -8 72 -3 22 -7 54 -8 70 -1
17 -5 35 -9 42 -4 6 -2 15 4 19 8 4 7 9 -2 15 -12 7 -12 9 0 9 7 0 11 6 8 14
-3 8 -3 17 1 21 4 3 8 18 9 33 3 58 8 82 14 82 3 0 5 10 5 23 -1 12 1 27 5 32
4 6 7 13 8 18 1 29 15 98 20 102 4 2 46 5 94 7 48 2 87 7 87 12 0 4 7 6 15 2
8 -3 15 -2 15 2 0 4 15 14 33 21 42 19 178 126 170 135 -3 3 -1 6 5 6 8 0 10
17 8 50 -3 31 -1 50 6 50 7 0 7 4 1 13 -5 6 -9 32 -7 57 3 62 3 62 16 54 7 -4
8 -3 4 4 -4 6 1 37 11 69 9 32 18 61 19 66 1 4 3 9 4 12 1 3 3 8 4 13 1 4 4
12 7 17 4 6 5 18 4 28 -2 9 1 17 6 17 6 0 7 4 4 10 -3 5 -1 18 4 28 6 11 13
32 16 48 3 16 7 34 9 41 2 13 56 59 56 48 0 -4 6 -2 13 4 8 6 17 8 20 4 4 -3
7 -1 7 6 0 8 7 11 15 7 8 -3 15 -1 15 4 0 6 9 10 19 10 11 0 23 5 26 10 4 6
11 8 16 5 5 -4 9 -1 9 5 0 6 5 8 10 5 6 -3 10 -2 10 4 0 5 9 8 20 6 11 -2 18
0 15 4 -4 8 60 27 78 23 4 -1 7 2 7 7 0 19 134 35 176 20 11 -4 27 -3 35 2 8
5 11 9 7 9 -4 0 -3 12 2 26 6 14 6 23 1 20 -14 -9 -19 16 -10 42 7 17 6 21 -3
16 -8 -5 -9 -2 -5 9 3 10 2 17 -3 17 -5 0 -11 9 -15 19 -8 25 -27 32 -48 16z
m-613 -417 c-3 -4 0 -8 5 -8 6 0 11 -5 11 -11 0 -5 -6 -7 -12 -3 -10 6 -10 4
-2 -7 13 -18 16 -57 3 -64 -5 -4 -7 -10 -4 -14 2 -5 -6 -20 -19 -34 -13 -14
-21 -28 -18 -31 3 -3 1 -6 -5 -6 -16 0 -74 -56 -66 -64 3 -3 -2 -6 -12 -6 -10
0 -16 -3 -12 -6 6 -7 6 -7 -56 -76 -30 -34 -56 -52 -90 -62 -26 -8 -44 -10
-41 -4 4 7 0 6 -13 0 -10 -6 -56 -12 -101 -15 -46 -3 -86 -8 -89 -11 -3 -3
-13 0 -21 7 -11 8 -14 9 -9 0 6 -9 -8 -11 -50 -10 -51 2 -59 5 -65 25 -8 26 9
72 26 72 16 0 35 50 32 88 -2 18 2 36 7 39 6 3 7 1 3 -5 -4 -7 -2 -12 3 -12 6
0 11 5 11 11 0 6 7 8 16 5 10 -4 13 -2 8 6 -5 8 -2 9 9 5 10 -3 17 -2 17 3 0
6 5 10 11 10 6 0 26 7 45 15 19 8 49 22 68 30 19 8 41 15 50 15 9 0 16 5 16
10 0 6 9 10 19 10 11 0 26 6 33 13 7 8 19 12 26 9 6 -2 12 2 12 9 0 7 3 9 7 6
3 -4 12 -2 20 4 7 6 13 8 13 4 0 -4 7 -2 15 5 8 6 19 9 25 5 5 -3 10 -3 10 2
0 9 48 33 67 33 7 0 13 4 13 10 0 5 7 7 15 4 8 -4 15 -1 15 6 0 6 4 9 8 6 4
-2 14 -1 22 4 15 9 33 -7 24 -22z"/>
</g>
</svg>
